<svg width="640" height="640" viewBox="0 0 640 640" fill="none" xmlns="http://www.w3.org/2000/svg">
<path d="M499.705 40.3477C516.232 40.3477 529.117 47.3323 538.081 60.998C547.045 74.664 549.286 90.4565 544.244 108.374L452.086 438.179C443.962 467.029 435.838 485.857 427.995 494.057C420.152 502.256 405.586 506.508 384.857 506.508H92.9764C86.8138 506.508 82.6117 508.33 80.0907 511.975C77.5697 515.923 77.5695 521.086 79.8104 527.767C85.4128 544.773 101.38 553.276 128.27 553.276H438.359C444.802 553.276 450.965 551.15 457.128 547.506C463.29 543.558 467.212 538.699 468.892 532.321L569.454 172.755C571.135 167.592 571.695 160.608 571.135 152.104C579.818 155.749 586.261 160.912 591.023 168.504C599.987 182.473 602.227 197.961 597.185 215.575L504.747 545.38C500.545 560.868 491.862 573.927 478.976 584.556C466.091 595.185 452.366 600.348 437.8 600.348H127.711C110.624 600.348 93.8161 593.97 77.8495 580.911C61.883 567.853 50.678 551.757 44.5155 532.929C39.1934 516.833 38.9139 501.345 43.9559 486.769C43.9559 486.336 44.0818 485.356 44.2743 483.862C44.4873 482.208 44.7817 479.923 45.076 477.051C45.7781 472.484 46.0891 468.552 46.3358 465.434C46.3843 464.82 46.4304 464.238 46.4764 463.688C46.4764 461.563 46.1966 459.133 45.3563 455.792C44.2359 452.755 43.9561 450.326 44.2362 448.808C44.7964 446.074 45.6364 443.644 47.037 441.215C48.052 439.454 49.3673 437.525 50.8641 435.33C51.4308 434.499 52.0249 433.628 52.6395 432.712C55.1605 429.371 56.8415 426.638 58.242 424.209C63.2841 414.795 68.3259 403.861 73.368 390.803C78.41 377.744 81.7713 366.508 83.452 357.397C84.2923 354.968 84.2925 351.324 83.7323 346.465C83.1721 341.606 82.8919 337.962 83.452 336.14C84.0122 333.406 85.9733 330.065 89.0545 325.813C92.1357 321.562 94.0969 318.829 94.6571 317.311C99.1389 308.807 103.901 297.571 108.663 283.905C113.425 270.239 116.226 259.306 117.066 251.106C117.346 248.981 117.066 245.033 116.225 239.566C115.665 233.797 115.665 230.456 116.506 229.241C117.346 225.901 119.867 222.256 123.789 218.005C127.71 213.754 130.232 211.02 131.072 209.806C135.274 203.732 140.036 193.406 145.358 179.133C150.68 164.86 153.761 153.016 154.601 143.905C154.601 141.779 154.322 138.742 153.481 134.49C152.641 130.239 152.361 126.898 152.921 124.772C153.481 122.647 154.322 120.521 156.003 118.092C157.683 115.662 159.924 112.626 162.165 109.589C162.959 108.513 163.718 107.474 164.429 106.502C165.725 104.729 166.863 103.173 167.767 101.996C169.728 98.9592 171.409 95.315 173.37 90.7598C175.331 86.2045 177.011 81.9528 178.412 78.0049C179.813 74.057 181.493 69.8053 183.734 64.9463C185.975 60.0874 187.936 56.4431 190.177 53.4062C192.418 50.3694 195.499 47.6365 199.14 44.9033C202.782 42.1701 206.704 40.9551 211.185 40.6514C215.667 40.3477 220.99 40.9552 227.152 42.4736L226.872 43.6885C235.275 41.5627 241.158 40.3477 243.959 40.3477H499.705Z" fill="black"/>
<path d="M353.74 189.795H366.154C413.552 189.795 437.495 205.06 437.983 235.589C438.075 245.725 435.951 257.472 431.611 270.829L425.218 290.506H321.017L353.74 189.795ZM187.601 283.171C191.863 270.053 197.633 257.889 204.912 246.679C212.23 235.35 221.088 225.452 231.488 216.985C253.93 198.858 280.574 189.795 311.42 189.795H325.903L266.618 372.255H256.837C225.239 372.255 203.461 364.026 191.504 347.569C180.067 331.827 178.766 310.361 187.601 283.171ZM309.625 325.566H403.669L402.041 330.575C398.438 341.666 391.195 351.027 380.314 358.66C367.087 367.723 351.007 372.255 332.073 372.255H294.455L309.625 325.566Z" fill="white" stroke="black" stroke-width="12"/>
</svg>
